<svg width="237" height="237" viewBox="0 0 237 237" fill="none" xmlns="http://www.w3.org/2000/svg">
<g filter="url(#filter0_d_5_32)">
<rect x="4" width="229" height="229" rx="114.5" fill="white"/>
</g>
<path d="M199.992 158.976C205.704 158.243 211.103 154.538 217.948 157.939C217.326 158.171 216.703 158.402 216.081 158.635C205.491 162.596 197.915 170.056 191.756 179.284C187.123 186.224 180.071 186.819 172.63 185.96C167.125 185.325 161.997 183.286 156.772 181.6C154.878 180.989 152.934 180.419 150.97 180.165C147.43 179.707 143.834 179.665 141.428 182.956C139.058 186.198 141.06 188.921 142.777 191.631C143.023 192.019 143.016 192.568 143.122 193.026C136.412 196.345 124.19 194.295 117.793 188.561C110.864 195.697 101.993 194.412 93.4774 194.168C92.1651 192.062 93.6551 191.005 94.2598 189.742C96.5785 184.897 94.3217 180.744 88.9132 180.059C84.2966 179.474 79.981 180.822 75.7736 182.455C69.6696 184.824 63.4727 186.62 56.8385 186.247C52.9333 186.027 48.9541 185.387 46.4309 182.184C38.5943 172.238 31.1526 161.932 17.0168 157.965C22.0878 154.976 25.7457 156.526 29.2759 157.436C39.6205 160.1 47.8575 166.416 55.1921 173.74C60.7371 179.276 66.4278 180.119 73.2924 177.073C76.1706 175.796 79.2231 174.871 82.2552 173.989C92.5652 170.988 99.3554 173.392 105.716 182.14C106.48 183.191 106.953 184.552 108.416 184.935C113.811 181.616 115.63 175.301 112.886 169.436C109.983 163.234 100.374 160.994 89.7118 164.904C95.0443 164.904 98.9617 164.66 102.838 164.955C110.478 165.538 114.956 172.482 112.208 179.142C110.695 182.807 108.589 183.229 105.963 180.393C97.0032 170.716 91.213 169.32 78.9063 173.884C77.5027 174.405 76.0743 174.882 74.7248 175.522C67.3333 179.025 61.3583 177.941 55.6326 171.526C49.331 164.465 40.6904 160.533 31.9355 157.099C30.4483 156.515 28.5946 156.545 27.1312 154.247C31.3076 152.4 35.4561 152.597 39.5675 153.225C46.6333 154.302 53.7371 155.28 60.6997 156.853C74.0042 159.86 87.1484 158.461 100.372 156.413C106.299 155.494 112.334 155.205 117.601 159.216C125.587 153.978 134.38 155.482 142.723 157.217C155.502 159.875 167.876 158.146 180.369 155.938C187.892 154.609 195.335 152.561 203.072 152.865C204.808 152.934 206.814 152.441 208.173 154.447C206.499 157.424 202.824 156.759 199.932 158.878C191.917 161.61 185.388 165.723 180.215 171.32C175.558 176.358 170.642 178.629 163.737 176.777C158.83 174.332 154.01 172.606 148.942 171.675C141.746 170.351 134.461 173.716 131.159 180.143C138.537 170.858 147.723 171.62 157.361 175.141C159.54 175.937 161.642 176.927 164.287 177.243C168.362 179.34 172.624 180.223 175.845 177.336C183.419 170.548 191.283 164.231 199.992 158.976ZM143.208 164.836C143.772 164.782 144.336 164.728 144.9 164.674C140.614 162.715 136.205 162.896 131.804 163.349C127.188 163.824 124.053 166.529 122.696 170.776C121.27 175.237 121.763 179.663 124.975 183.435C125.922 184.547 126.936 185.313 128.324 183.499C123.434 181.594 122.366 177.651 123.134 173.112C124.005 167.966 127.666 165.506 132.542 164.978C135.826 164.622 139.174 164.856 143.208 164.836Z" fill="#D95832"/>
<path d="M164.795 25.0547C201.122 45.7084 219.404 83.4461 212.942 124.307C211.851 131.207 209.911 137.951 207.2 144.433C204.393 151.143 203.741 151.467 196.195 149.766C215.61 101.377 206.438 61.048 160.843 32.904C130.613 14.2437 90.8324 17.7152 63.1016 40.9963C27.8265 70.6111 22.5906 107.71 39.6408 149.172C33.5763 151.804 31.84 151.186 29.4248 145.522C6.93539 92.7779 36.3735 31.8626 91.497 16.6952C117 9.67817 141.233 12.4508 164.795 25.0547Z" fill="#D95832"/>
<path d="M110.428 94.3142C106.31 85.8666 106.278 77.6809 111.287 70.2198C119.492 57.9962 120.083 45.5309 114.026 32.4206C113.777 31.8806 113.788 31.2203 113.664 30.545C116.119 29.683 117.706 31.0451 119.312 32.0872C130.192 39.1497 134.551 51.9569 130.499 64.9356C129.356 68.5967 127.806 72.0916 125.832 75.387C118.063 88.3578 118.061 88.3563 117.244 102.225C113.453 100.953 112.38 97.4818 110.428 94.3142Z" fill="#D95832"/>
<path d="M94.1294 87.6487C88.5354 76.8546 89.3181 69.691 96.9242 60.83C99.1938 58.1861 101.648 55.7016 103.949 53.0835C105.508 51.3088 106.567 49.2041 107.01 46.8935C107.399 44.8573 107.495 42.7647 107.797 39.9844C112.814 43.7675 112.746 48.4667 111.945 53.1773C111.565 55.4141 110.557 57.6424 109.415 59.6353C102.546 71.6279 99.5724 83.8992 107.338 98.0117C100.585 96.1961 97.3479 92.2242 94.1294 87.6487Z" fill="#D95832"/>
<path d="M141.705 78.5459C137.052 86.5379 129.787 92.7735 130.153 103.537C125.398 101.252 124.43 97.7622 123.803 94.3221C122.931 89.5377 124.073 84.9391 126.86 81.0246C133.402 71.8359 139.631 62.6372 135.547 49.9782C145.376 54.3113 147.744 66.7023 141.705 78.5459Z" fill="#D95832"/>
<path d="M63.8689 77.0959C70.3368 77.162 76.3024 77.9242 82.3152 77.3138C87.938 76.743 87.745 81.4064 88.9306 84.7073C87.6255 86.6742 85.8117 86.2254 84.2377 86.2324C70.9099 86.2909 57.5817 86.2755 44.2537 86.3042C41.1332 86.3109 37.6367 86.2607 37.3371 82.3248C37.0134 78.0738 40.622 77.3227 43.8995 77.2269C50.3915 77.037 56.8914 77.123 63.8689 77.0959Z" fill="#E2A552"/>
<path d="M156.869 85.4929C150.885 86.6663 147.24 86.5187 143.488 85.1318C145.313 77.2155 154.578 74.3948 163.334 79.2563C162.273 82.256 159.747 83.7801 156.869 85.4929Z" fill="#E2A552"/>
<path d="M196.286 85.9485C190.507 86.2014 185.122 86.704 179.622 85.533C182.608 79.7092 188.321 76.5217 193.812 77.2083C195.919 77.4718 197.644 78.251 198.489 80.333C199.426 82.6443 198.949 84.5307 196.286 85.9485Z" fill="#E2A552"/>
<path d="M71.2373 54.7557C69.2434 52.7353 67.4065 51.0489 65.765 49.1898C63.8886 47.0648 63.4852 44.8296 65.8266 42.6424C67.9642 40.6455 70.1534 40.9299 71.9904 42.8047C77.6691 48.6006 83.2981 54.4508 88.7752 60.4366C91.7443 63.6813 88.6162 66.1444 87.0107 69.8017C81.003 65.2826 76.4909 59.8629 71.2373 54.7557Z" fill="#E2A552"/>
<path d="M161.774 57.7802C158.743 60.2884 156.923 63.7628 152.697 64.9406C151.292 60.3755 150.67 56.2752 154.624 52.6261C157.803 49.6921 160.793 46.5534 163.892 43.532C165.995 41.4822 168.336 40.2027 170.783 42.8549C173.129 45.3983 171.98 47.7324 169.853 49.8195C167.239 52.3851 164.633 54.959 161.774 57.7802Z" fill="#E2A552"/>
<path d="M131.073 106.76C133.364 105.07 135.597 104.696 138.004 104.718C147.334 104.801 156.665 104.754 165.994 104.88C171.698 104.956 172.978 106.595 171.086 111.992C165.132 128.978 152.403 138.612 135.78 143.785C109.114 152.083 78.5832 140.659 66.4649 117.856C65.143 115.369 64.0755 112.72 63.1506 110.055C61.8735 106.376 63.1589 104.181 67.252 104.225C72.7452 104.284 78.2368 104.536 83.7297 104.56C97.0491 104.619 110.369 104.575 123.688 104.63C125.297 104.637 127.008 104.133 128.908 105.393C127.394 108.765 123.183 109.123 120.75 113.007C124.664 110.627 127.695 108.784 131.073 106.76Z" fill="#211D1E"/>
<path d="M169.147 80.1288C172.232 77.8226 175.042 75.7428 177.855 73.667C179.548 72.4173 181.156 72.0857 182.571 74.0875C183.884 75.9438 183.592 77.4945 181.731 78.7702C170.196 86.6754 158.706 94.649 147.086 102.427C144.754 103.987 141.914 104.473 138.185 102.411C148.778 94.7977 158.825 87.5773 169.147 80.1288Z" fill="#211D1E"/>
<path d="M199.584 98.8147C190.859 103.484 182.446 107.976 173.892 112.543C171.705 104.746 172.033 103.971 177.931 100.861C183.796 97.7677 189.685 94.7127 195.451 91.4427C197.915 90.0454 199.612 89.9276 201.161 92.6344C202.595 95.1428 203.23 97.2443 199.584 98.8147Z" fill="#211D1E"/>
<path d="M148.644 144.656C147.929 147.799 147.342 150.556 146.677 153.295C145.881 156.57 143.819 156.878 141.576 154.932C138.739 152.471 135.848 149.974 133.544 146.085C138.098 144.353 142.294 142.514 146.646 141.19C149.402 140.352 148.963 142.586 148.644 144.656Z" fill="#211D1E"/>
<path d="M95.7635 152.888C90.4783 157.494 89.3609 157.207 88.0292 150.785C87.4012 147.756 86.0435 144.777 86.8209 140.79C91.8662 142.495 96.7107 144.132 101.663 145.805C100.586 149.269 97.709 150.446 95.7635 152.888Z" fill="#211D1E"/>
<defs>
<filter id="filter0_d_5_32" x="0" y="0" width="237" height="237" filterUnits="userSpaceOnUse" color-interpolation-filters="sRGB">
<feFlood flood-opacity="0" result="BackgroundImageFix"/>
<feColorMatrix in="SourceAlpha" type="matrix" values="0 0 0 0 0 0 0 0 0 0 0 0 0 0 0 0 0 0 127 0" result="hardAlpha"/>
<feOffset dy="4"/>
<feGaussianBlur stdDeviation="2"/>
<feComposite in2="hardAlpha" operator="out"/>
<feColorMatrix type="matrix" values="0 0 0 0 0 0 0 0 0 0 0 0 0 0 0 0 0 0 0.25 0"/>
<feBlend mode="normal" in2="BackgroundImageFix" result="effect1_dropShadow_5_32"/>
<feBlend mode="normal" in="SourceGraphic" in2="effect1_dropShadow_5_32" result="shape"/>
</filter>
</defs>
</svg>
