<svg width="222" height="222" viewBox="0 0 222 222" fill="none" xmlns="http://www.w3.org/2000/svg">
<rect width="222" height="221" transform="translate(0 1)" fill="white"/>
<g clip-path="url(#clip0_5_31)">
<path d="M194.992 148.976C200.704 148.243 206.103 144.538 212.948 147.939C212.326 148.171 211.703 148.402 211.081 148.635C200.491 152.596 192.915 160.056 186.756 169.284C182.123 176.224 175.071 176.819 167.63 175.96C162.125 175.325 156.997 173.286 151.772 171.6C149.878 170.989 147.934 170.419 145.97 170.165C142.43 169.707 138.834 169.665 136.428 172.956C134.058 176.198 136.06 178.921 137.777 181.631C138.023 182.019 138.016 182.568 138.122 183.026C131.412 186.345 119.19 184.295 112.793 178.561C105.864 185.697 96.9931 184.412 88.4774 184.168C87.1651 182.062 88.6551 181.005 89.2598 179.742C91.5785 174.897 89.3217 170.744 83.9132 170.059C79.2966 169.474 74.981 170.822 70.7736 172.455C64.6696 174.824 58.4727 176.62 51.8385 176.247C47.9333 176.027 43.9541 175.387 41.4309 172.184C33.5943 162.238 26.1526 151.932 12.0168 147.965C17.0878 144.976 20.7457 146.526 24.2759 147.436C34.6205 150.1 42.8575 156.416 50.1921 163.74C55.7371 169.276 61.4278 170.119 68.2924 167.073C71.1706 165.796 74.2231 164.871 77.2552 163.989C87.5652 160.988 94.3554 163.392 100.716 172.14C101.48 173.191 101.953 174.552 103.416 174.935C108.811 171.616 110.63 165.301 107.886 159.436C104.983 153.234 95.3744 150.994 84.7118 154.904C90.0443 154.904 93.9617 154.66 97.838 154.955C105.478 155.538 109.956 162.482 107.208 169.142C105.695 172.807 103.589 173.229 100.963 170.393C92.0032 160.716 86.213 159.32 73.9063 163.884C72.5027 164.405 71.0743 164.882 69.7248 165.522C62.3333 169.025 56.3583 167.941 50.6326 161.526C44.331 154.465 35.6904 150.533 26.9355 147.099C25.4483 146.515 23.5946 146.545 22.1312 144.247C26.3076 142.4 30.4561 142.597 34.5675 143.225C41.6333 144.302 48.7371 145.28 55.6997 146.853C69.0042 149.86 82.1484 148.461 95.3716 146.413C101.299 145.494 107.334 145.205 112.601 149.216C120.587 143.978 129.38 145.482 137.723 147.217C150.502 149.875 162.876 148.146 175.369 145.938C182.892 144.609 190.335 142.561 198.072 142.865C199.808 142.934 201.814 142.441 203.173 144.447C201.499 147.424 197.824 146.759 194.932 148.878C186.917 151.61 180.388 155.723 175.215 161.32C170.558 166.358 165.642 168.629 158.737 166.777C153.83 164.332 149.01 162.606 143.942 161.675C136.746 160.351 129.461 163.716 126.159 170.143C133.537 160.858 142.723 161.62 152.361 165.141C154.54 165.937 156.642 166.927 159.287 167.243C163.362 169.34 167.624 170.223 170.845 167.336C178.419 160.548 186.283 154.231 194.992 148.976ZM138.208 154.836C138.772 154.782 139.336 154.728 139.9 154.674C135.614 152.715 131.205 152.896 126.804 153.349C122.188 153.824 119.053 156.529 117.696 160.776C116.27 165.237 116.763 169.663 119.975 173.435C120.922 174.547 121.936 175.313 123.324 173.499C118.434 171.594 117.366 167.651 118.134 163.112C119.005 157.966 122.666 155.506 127.542 154.978C130.826 154.622 134.174 154.856 138.208 154.836Z" fill="#D95832"/>
<path d="M159.795 15.0547C196.122 35.7084 214.404 73.4461 207.942 114.307C206.851 121.207 204.911 127.951 202.2 134.433C199.393 141.143 198.741 141.467 191.195 139.766C210.61 91.3769 201.438 51.048 155.843 22.904C125.613 4.24366 85.8324 7.7152 58.1016 30.9963C22.8265 60.6111 17.5906 97.7104 34.6408 139.172C28.5763 141.804 26.84 141.186 24.4248 135.522C1.93539 82.7779 31.3735 21.8626 86.497 6.69523C112 -0.321834 136.233 2.45078 159.795 15.0547Z" fill="#D95832"/>
<path d="M105.428 84.3142C101.31 75.8666 101.278 67.6809 106.287 60.2198C114.492 47.9962 115.083 35.5309 109.026 22.4206C108.777 21.8806 108.788 21.2203 108.664 20.545C111.119 19.683 112.706 21.0451 114.312 22.0872C125.192 29.1497 129.551 41.9569 125.499 54.9356C124.356 58.5967 122.806 62.0916 120.832 65.387C113.063 78.3578 113.061 78.3563 112.244 92.2252C108.453 90.9531 107.38 87.4818 105.428 84.3142Z" fill="#D95832"/>
<path d="M89.1294 77.6487C83.5354 66.8546 84.3181 59.691 91.9242 50.83C94.1938 48.1861 96.6482 45.7016 98.9489 43.0835C100.508 41.3088 101.567 39.2041 102.01 36.8935C102.399 34.8573 102.495 32.7647 102.797 29.9844C107.814 33.7675 107.746 38.4667 106.945 43.1773C106.565 45.4141 105.557 47.6424 104.415 49.6353C97.5457 61.6279 94.5724 73.8992 102.338 88.0117C95.5851 86.1961 92.3479 82.2242 89.1294 77.6487Z" fill="#D95832"/>
<path d="M136.705 68.5459C132.052 76.5379 124.787 82.7735 125.153 93.5375C120.398 91.252 119.43 87.7622 118.803 84.3221C117.931 79.5377 119.073 74.9391 121.86 71.0246C128.402 61.8359 134.631 52.6372 130.547 39.9782C140.376 44.3113 142.744 56.7023 136.705 68.5459Z" fill="#D95832"/>
<path d="M58.8689 67.0959C65.3368 67.162 71.3024 67.9242 77.3152 67.3138C82.938 66.743 82.745 71.4064 83.9306 74.7073C82.6255 76.6742 80.8117 76.2254 79.2377 76.2324C65.9099 76.2909 52.5817 76.2755 39.2537 76.3042C36.1332 76.3109 32.6367 76.2607 32.3371 72.3248C32.0134 68.0738 35.622 67.3227 38.8995 67.2269C45.3915 67.037 51.8914 67.123 58.8689 67.0959Z" fill="#E2A552"/>
<path d="M151.869 75.4929C145.885 76.6663 142.24 76.5187 138.488 75.1318C140.313 67.2155 149.578 64.3948 158.334 69.2563C157.273 72.256 154.747 73.7801 151.869 75.4929Z" fill="#E2A552"/>
<path d="M191.286 75.9485C185.507 76.2014 180.122 76.704 174.622 75.533C177.608 69.7092 183.321 66.5217 188.812 67.2083C190.919 67.4718 192.644 68.251 193.489 70.333C194.426 72.6443 193.949 74.5307 191.286 75.9485Z" fill="#E2A552"/>
<path d="M66.2373 44.7557C64.2434 42.7353 62.4065 41.0489 60.765 39.1898C58.8886 37.0648 58.4852 34.8296 60.8266 32.6424C62.9642 30.6455 65.1534 30.9299 66.9904 32.8047C72.6691 38.6006 78.2981 44.4508 83.7752 50.4366C86.7443 53.6813 83.6162 56.1444 82.0107 59.8017C76.003 55.2826 71.4909 49.8629 66.2373 44.7557Z" fill="#E2A552"/>
<path d="M156.774 47.7802C153.743 50.2884 151.923 53.7628 147.697 54.9406C146.292 50.3755 145.67 46.2752 149.624 42.6261C152.803 39.6921 155.793 36.5534 158.892 33.532C160.995 31.4822 163.336 30.2027 165.783 32.8549C168.129 35.3983 166.98 37.7324 164.853 39.8195C162.239 42.3851 159.633 44.959 156.774 47.7802Z" fill="#E2A552"/>
<path d="M126.073 96.7604C128.364 95.0697 130.597 94.696 133.004 94.7176C142.334 94.8014 151.665 94.7541 160.994 94.8797C166.698 94.9565 167.978 96.5955 166.086 101.992C160.132 118.978 147.403 128.612 130.78 133.785C104.114 142.083 73.5832 130.659 61.4649 107.856C60.143 105.369 59.0755 102.72 58.1506 100.055C56.8735 96.3757 58.1589 94.1806 62.252 94.2247C67.7452 94.2839 73.2368 94.5357 78.7297 94.5601C92.0491 94.6193 105.369 94.5747 118.688 94.6301C120.297 94.6368 122.008 94.1327 123.908 95.3933C122.394 98.7653 118.183 99.123 115.75 103.007C119.664 100.627 122.695 98.7838 126.073 96.7604Z" fill="#211D1E"/>
<path d="M141.387 219.341C139.027 212.813 136.878 206.589 134.685 200.237C137.502 199.901 137.502 199.901 143.747 211.762C144.999 208.329 146.095 205.269 147.236 202.227C147.696 201 148.058 199.669 149.789 199.588C151.75 199.495 152.317 200.883 152.818 202.319C153.852 205.285 154.834 208.269 156.313 212.658C157.702 208.506 158.769 205.554 159.666 202.552C160.262 200.558 161.239 198.969 163.482 199.78C165.87 200.644 164.507 202.593 164.05 204.018C162.683 208.281 161.216 212.515 159.66 216.713C159.059 218.333 158.766 220.499 156.261 220.358C154.102 220.237 153.872 218.349 153.301 216.832C152.331 214.257 151.392 211.671 150.05 208.032C148.56 212.001 147.479 214.89 146.39 217.778C145.487 220.173 144.194 221.586 141.387 219.341Z" fill="#211D1E"/>
<path d="M164.147 70.1288C167.232 67.8226 170.042 65.7428 172.855 63.667C174.548 62.4173 176.156 62.0857 177.571 64.0875C178.884 65.9438 178.592 67.4945 176.731 68.7702C165.196 76.6754 153.706 84.649 142.086 92.4265C139.754 93.9872 136.914 94.4729 133.185 92.4109C143.778 84.7977 153.825 77.5773 164.147 70.1288Z" fill="#211D1E"/>
<path d="M194.584 88.8147C185.859 93.4836 177.446 97.9756 168.892 102.543C166.705 94.7455 167.033 93.9711 172.931 90.8606C178.796 87.7677 184.685 84.7127 190.451 81.4427C192.915 80.0454 194.612 79.9276 196.161 82.6344C197.595 85.1428 198.23 87.2443 194.584 88.8147Z" fill="#211D1E"/>
<path d="M70.4891 209.893C70.6238 207.125 70.6704 204.637 70.7474 202.151C70.7871 200.869 71.2526 199.858 72.711 199.759C74.4244 199.642 75.137 200.698 75.1465 202.209C75.1789 207.349 75.1661 212.49 75.0986 217.629C75.0828 218.834 74.6409 219.918 73.1919 220.149C71.878 220.359 70.974 219.718 70.2122 218.76C67.5357 215.395 64.8598 212.029 61.1396 207.351C61.1396 211.563 61.1995 214.412 61.1136 217.256C61.0724 218.619 60.7002 219.993 58.932 220.021C57.0961 220.051 56.827 218.625 56.8072 217.276C56.7366 212.468 56.7396 207.658 56.7584 202.848C56.7636 201.523 56.7722 200.093 58.4831 199.687C59.9479 199.34 60.9499 200.09 61.973 201.071C64.9676 203.943 66.2998 208.353 70.4891 209.893Z" fill="#211D1E"/>
<path d="M181.814 201.02C186.395 205.628 187.663 210.393 185.487 214.666C183.329 218.903 179.711 221.17 174.986 220.79C170.049 220.394 166.781 217.438 165.303 212.717C163.967 208.45 165.284 204.743 168.577 201.974C172.499 198.677 176.916 198.168 181.814 201.02ZM177.716 216.182C181.526 214.428 182.615 211.339 181.416 207.59C180.537 204.839 178.278 203.261 175.318 203.503C172.095 203.767 170.411 206.037 169.706 208.971C168.701 213.155 171.685 216.139 177.716 216.182Z" fill="#211D1E"/>
<path d="M90.0337 207.265C89.9989 207.423 90.0287 207.595 90.0274 208.232C90.0319 211.689 89.9783 214.675 90.0687 217.658C90.1131 219.119 90.1316 220.886 92.1122 221.107C94.232 221.344 94.2201 219.186 94.4083 217.658C94.6297 215.86 93.7451 212.45 95.9083 211.997C100.251 211.997 101.5 211.997 103 210C101.5 207.265 100.408 208.232 97.0659 208.232C93.0699 208.232 93.4083 205 97.0659 204C99.0659 204.5 104.661 203.691 104.908 200.99C101.908 198.997 97.0659 200.558 92.0719 200.99C88.7828 201.275 90.5237 205.042 90.0337 207.265Z" fill="#211D1E"/>
<path d="M204.935 216.049C205.844 217.398 207.08 218.228 206.678 220.003C200.428 221.884 200.209 214.44 196.281 212.987C193.99 213.965 194.265 215.972 193.96 217.717C193.75 218.918 193.35 220.032 191.87 220.067C190.006 220.113 189.738 218.706 189.721 217.347C189.655 212.363 189.662 207.378 189.679 202.394C189.683 201.03 189.775 199.591 191.696 199.635C193.469 199.676 193.68 201.064 193.955 202.401C194.243 203.805 193.661 205.395 194.81 206.651C199.259 205.542 200.155 198.142 207.169 200.235C202.817 205.099 197.314 209.769 204.935 216.049Z" fill="#211D1E"/>
<path d="M42.4729 216.351C46.5556 216.733 47.8489 214.536 47.9761 211.263C48.086 208.434 48.0402 205.598 48.1867 202.772C48.2658 201.245 48.5774 199.61 50.6332 199.669C52.7452 199.729 52.7899 201.478 52.8393 202.953C52.9562 206.444 53.2281 209.954 52.4748 213.414C51.4464 218.137 48.2458 220.855 43.7694 220.856C39.207 220.857 35.4338 217.72 34.9357 212.967C34.5732 209.506 34.8202 205.98 34.8467 202.483C34.8574 201.062 35.1999 199.753 36.9922 199.709C39.1718 199.655 39.2482 201.269 39.2758 202.808C39.3235 205.474 39.3269 208.14 39.3126 210.806C39.3002 213.116 39.8684 215.1 42.4729 216.351Z" fill="#211D1E"/>
<path d="M29.8315 218.883C25.9453 221.453 22.2952 221.141 18.6614 219.297C17.472 218.694 16.1533 217.899 16.8679 216.254C17.5538 214.675 18.8647 214.861 20.2386 215.452C22.6392 216.483 25.1099 217.724 27.1815 214.935C26.2633 212.252 23.9281 212.475 22.1799 211.778C19.2218 210.598 16.8056 208.997 16.7899 205.415C16.7786 202.838 18.029 200.933 20.4216 199.967C23.731 198.631 26.9424 199.055 29.9316 200.949C30.887 201.554 31.0944 202.51 30.5323 203.55C29.8338 204.843 28.7716 204.859 27.5486 204.424C25.4055 203.662 23.1224 202.312 21.657 205.808C25.0678 209.644 36.754 208.287 29.8315 218.883Z" fill="#211D1E"/>
<path d="M111.731 212.866C112.793 215.419 114.215 217.037 116.787 216.457C119.424 215.861 120.47 213.766 120.59 211.252C120.716 208.601 120.617 205.94 120.694 203.286C120.74 201.678 120.443 199.663 122.982 199.734C125.084 199.792 125.115 201.521 125.138 203.013C125.187 206.165 125.341 209.338 125.065 212.469C124.625 217.453 120.845 220.932 116.255 220.953C111.288 220.976 107.867 218.066 107.286 212.8C106.906 209.354 107.061 205.842 107.1 202.361C107.115 200.987 107.544 199.63 109.351 199.701C111.175 199.774 111.335 201.168 111.372 202.546C111.461 205.861 111.515 209.177 111.731 212.866Z" fill="#211D1E"/>
<path d="M143.644 134.656C142.929 137.799 142.342 140.556 141.677 143.295C140.881 146.57 138.819 146.878 136.576 144.932C133.739 142.471 130.848 139.974 128.544 136.085C133.098 134.353 137.294 132.514 141.646 131.19C144.402 130.352 143.963 132.586 143.644 134.656Z" fill="#211D1E"/>
<path d="M90.7635 142.888C85.4783 147.494 84.3609 147.207 83.0292 140.785C82.4012 137.756 81.0435 134.777 81.8209 130.79C86.8662 132.495 91.7107 134.132 96.6634 135.805C95.5858 139.269 92.709 140.446 90.7635 142.888Z" fill="#211D1E"/>
</g>
<defs>
<clipPath id="clip0_5_31">
<rect width="222" height="221" fill="white"/>
</clipPath>
</defs>
</svg>
